<?xml version="1.0" standalone="no"?>
<!DOCTYPE svg PUBLIC "-//W3C//DTD SVG 20010904//EN"
 "http://www.w3.org/TR/2001/REC-SVG-20010904/DTD/svg10.dtd">
<svg version="1.0" xmlns="http://www.w3.org/2000/svg"
 width="456.000000pt" height="456.000000pt" viewBox="0 0 456.000000 456.000000"
 preserveAspectRatio="xMidYMid meet">
<metadata>
Created by potrace 1.14, written by Peter Selinger 2001-2017
</metadata>
<g transform="translate(0.000000,456.000000) scale(0.100000,-0.100000)"
fill="#000000" stroke="none">
<path d="M2306 3443 c-2 -3 -19 -7 -36 -10 -41 -6 -138 -58 -165 -88 -48 -53
-63 -74 -58 -79 3 -3 1 -12 -5 -19 -7 -8 -9 -17 -5 -20 3 -4 2 -7 -3 -7 -15 0
-14 -101 1 -156 8 -28 26 -67 39 -87 22 -32 33 -96 17 -98 -3 0 -152 -2 -331
-4 -342 -4 -363 -5 -481 -31 -110 -23 -197 -29 -224 -14 -27 14 -33 27 -41 79
-8 56 -25 94 -53 116 -14 11 -35 31 -48 44 -32 33 -52 35 -65 6 -6 -13 -20
-26 -32 -29 -33 -9 -64 -65 -71 -131 -4 -33 -11 -68 -16 -77 -6 -10 -7 -18 -5
-18 3 0 -1 -18 -9 -41 -15 -40 -27 -143 -29 -249 -2 -52 22 -171 37 -186 4 -4
7 -15 7 -25 0 -9 4 -19 9 -21 5 -1 11 -12 13 -23 1 -11 11 -29 20 -39 10 -11
18 -26 18 -33 0 -19 164 -183 183 -183 10 0 17 -4 17 -9 0 -5 9 -13 20 -16 16
-5 20 -13 16 -35 -2 -16 -7 -33 -10 -39 -4 -5 -2 -12 3 -16 7 -3 7 -15 1 -29
-5 -13 -6 -27 -3 -30 3 -3 4 -38 3 -78 -8 -172 -4 -220 24 -287 15 -35 34 -70
42 -78 8 -8 14 -18 14 -22 0 -15 74 -86 124 -120 97 -67 126 -72 361 -66 258
6 266 6 340 5 33 0 185 2 337 5 182 3 279 1 283 -5 4 -6 12 -7 18 -3 15 9 47
11 52 4 2 -4 85 -6 185 -5 110 1 205 -4 240 -11 61 -13 70 -13 235 -1 177 13
287 50 357 120 57 57 84 124 125 306 4 19 8 115 7 212 0 154 2 176 15 176 21
-1 113 47 105 54 -3 4 3 9 13 12 19 7 113 126 113 144 0 6 5 12 11 14 5 2 11
10 13 18 2 14 15 46 38 95 5 11 10 30 11 43 0 12 5 22 9 22 3 0 7 8 7 18 0 9
4 35 10 57 22 85 32 250 20 320 -17 91 -21 109 -39 151 -18 41 -65 93 -77 86
-3 -2 -9 2 -14 9 -10 17 -118 17 -129 0 -4 -8 -13 -10 -20 -6 -8 5 -11 4 -6
-3 3 -6 -2 -13 -12 -16 -18 -6 -61 -80 -66 -112 -1 -8 -17 -33 -35 -54 -37
-45 -70 -52 -110 -23 -51 35 -121 41 -444 39 -171 -1 -333 0 -359 2 l-48 4 21
30 c58 81 57 215 -2 300 -11 14 -19 29 -19 32 0 28 -150 165 -172 158 -5 -1
-8 3 -8 8 0 6 -8 10 -18 10 -10 0 -22 3 -26 7 -3 4 -12 8 -19 9 -7 1 -30 5
-52 9 -45 8 -163 14 -169 8z"/>
</g>
</svg>
